<?xml version="1.0" ?><!DOCTYPE svg  PUBLIC '-//W3C//DTD SVG 1.1//EN'  'http://www.w3.org/Graphics/SVG/1.1/DTD/svg11.dtd'><svg enable-background="new 0 0 360.131 398.292" height="398.292px" version="1.1" viewBox="0 0 360.131 398.292" width="360.131px" xml:space="preserve" xmlns="http://www.w3.org/2000/svg" xmlns:xlink="http://www.w3.org/1999/xlink"><g id="Flags"/><g id="Iconos"><g><g opacity="0.4"><path d="M92.455,49.718c1.073-5.514,1.183-12.238,0.408-17.944c-0.887-6.528-5.263-12.083-10.074-16.573     C74.758,7.708,64.047,4.331,53.557,3.858c-0.113,0.016-0.228,0.027-0.341,0.043c7.43,1.431,14.516,13.03,18.313,18.215     c9.558,13.052,14.667,28.717,14.667,42.343l0.203,0.203c1.496-1.709,2.838-3.554,4.002-5.52     C91.446,55.638,92.095,51.571,92.455,49.718z" fill="#FFFFFF"/></g><g><ellipse cx="61.5" cy="373.434" fill="#F5F21E" rx="58" ry="21.359"/><path d="M61.5,398.292c-29.813,0-61.5-8.712-61.5-24.859s31.687-24.859,61.5-24.859s61.5,8.712,61.5,24.859     S91.313,398.292,61.5,398.292z M61.5,355.575c-31.192,0-54.5,9.429-54.5,17.859s23.308,17.859,54.5,17.859     s54.5-9.429,54.5-17.859S92.692,355.575,61.5,355.575z"/></g><g><circle cx="58.646" cy="40.383" fill="#F7F719" r="36.883"/><path d="M58.646,80.766c-22.267,0-40.383-18.116-40.383-40.383C18.263,18.116,36.379,0,58.646,0     c22.268,0,40.383,18.116,40.383,40.383C99.029,62.65,80.914,80.766,58.646,80.766z M58.646,7     C40.239,7,25.263,21.976,25.263,40.383c0,18.407,14.976,33.383,33.383,33.383c18.408,0,33.383-14.976,33.383-33.383     C92.029,21.976,77.054,7,58.646,7z"/></g><g><path d="M73.5,364.793c0,6.627-5.373,12-12,12h-3.351c-6.627,0-12-5.373-12-12V79.356c0-6.627,5.373-12,12-12     H61.5c6.627,0,12,5.373,12,12V364.793z" fill="#8B3E0C"/><path d="M61.5,380.292h-3.351c-8.547,0-15.5-6.953-15.5-15.5V79.356c0-8.547,6.953-15.5,15.5-15.5H61.5     c8.547,0,15.5,6.953,15.5,15.5v285.436C77,373.339,70.047,380.292,61.5,380.292z M58.149,70.856c-4.687,0-8.5,3.813-8.5,8.5     v285.436c0,4.687,3.813,8.5,8.5,8.5H61.5c4.687,0,8.5-3.813,8.5-8.5V79.356c0-4.687-3.813-8.5-8.5-8.5H58.149z"/></g><g><path d="M74.167,80.451v184.732c0,0,64.967,9.039,136.713,0c71.746-9.039,145.752,4.017,145.752,4.017V80.451     c0,0-57.131-9.659-145.752,0C133.35,88.901,74.167,80.451,74.167,80.451z" fill="#171515"/><path d="M360.131,273.371l-4.108-0.724c-0.406-0.071-41.143-7.152-90.646-7.152c-19.228,0-37.416,1.063-54.06,3.16     c-21.303,2.684-44.104,4.045-67.769,4.045c-40.28,0-69.573-4.01-69.864-4.051l-3.018-0.42V76.417l3.994,0.569     c0.261,0.037,26.563,3.72,66.317,3.72c23.393,0,46.784-1.256,69.522-3.735c26.261-2.862,52.354-4.313,77.554-4.313     c42.98,0,68.112,4.165,69.161,4.342l2.917,0.493V273.371z M77.667,262.094c8.392,0.994,33.523,3.606,65.882,3.606     c23.373,0,45.879-1.343,66.894-3.99c16.933-2.133,35.416-3.215,54.935-3.215c41.004,0,76.097,4.805,87.754,6.596V83.471     c-7.812-1.081-30.945-3.813-65.077-3.813c-24.948,0-50.785,1.438-76.795,4.272c-22.99,2.505-46.636,3.776-70.281,3.776     c-31.296,0-54.42-2.264-63.311-3.292V262.094z"/></g><g opacity="0.3"><path d="M51.828,60.977c-0.339-0.413-0.669-0.832-1.003-1.249c-0.128-0.174-0.35-0.472-0.692-0.927     c-2.559-3.454-4.895-7.069-7.131-10.738c-2.089-3.428-3.995-6.965-5.817-10.541c-2.341-4.596-3.524-7.419-4.667-10.35     c-1.178-3.019-2.232-6.085-3.168-9.186c-4.755,6.21-7.586,13.971-7.586,22.397c0,20.37,6.513,31.883,26.883,31.883     c0.306,0,7.608-4.016,7.913-4.023c0.326-4.378,1.758,0.112-1.402-3.411C54.022,63.568,52.915,62.283,51.828,60.977z"/></g><g opacity="0.3"><path d="M96.935,390.337c-7.58-1.305-15.129-2.774-22.587-4.705c-3.066-0.794-6.096-1.715-9.107-2.694     c-1.5-0.488-2.981-1.029-4.461-1.572c-0.006-0.002-2.787-1.137-2.905-1.157c-2.585-1.155-5.101-2.455-7.575-3.83     c-0.8-0.445-1.584-0.918-2.362-1.4c-2.414-7.828-3.239-14.395-4.009-21.904C20.487,355.817,3.5,363.893,3.5,373.434     c0,11.796,25.967,21.359,58,21.359C74.848,394.793,87.133,393.128,96.935,390.337z"/></g><g><path d="M73.5,364.793c0,6.627-5.373,12-12,12h-3.351c-6.627,0-12-5.373-12-12V79.356c0-6.627,5.373-12,12-12     H61.5c6.627,0,12,5.373,12,12V364.793z" fill="#8B3E0C"/><path d="M61.5,380.292h-3.351c-8.547,0-15.5-6.953-15.5-15.5V79.356c0-8.547,6.953-15.5,15.5-15.5H61.5     c8.547,0,15.5,6.953,15.5,15.5v285.436C77,373.339,70.047,380.292,61.5,380.292z M58.149,70.856c-4.687,0-8.5,3.813-8.5,8.5     v285.436c0,4.687,3.813,8.5,8.5,8.5H61.5c4.687,0,8.5-3.813,8.5-8.5V79.356c0-4.687-3.813-8.5-8.5-8.5H58.149z"/></g><g><path d="M91.838,40.383c0-17.955-14.259-32.57-32.069-33.163c4.919,4.328,8.669,9.669,12.504,15.238     c3.55,5.155,6.625,10.712,9.324,16.341c2.164,4.513,5.606,11.339,6.459,16.969C90.467,51.168,91.838,45.937,91.838,40.383z" fill="#F4F894"/></g><g opacity="0.4"><path d="M58.149,369.041c0,2.624-2.127,4.751-4.751,4.751l0,0c-2.624,0-4.751-2.127-4.751-4.751V74.018     c0-2.624,2.127-4.751,4.751-4.751l0,0c2.624,0,4.751,2.127,4.751,4.751V369.041z"/></g><g><path d="M89.132,361.684c-1.523,0-3.011,0.054-4.456,0.152c12.319,0.76,21.644,7.319,21.644,11.598     c0,4.279-9.325,10.838-21.644,11.598c1.445,0.098,2.933,0.152,4.456,0.152c13.289,0,24.063-6.918,24.063-11.75     C113.194,368.601,102.421,361.684,89.132,361.684z" fill="#F0F494"/></g><g><path d="M270.446,173.56c0,12.19-3.564,23.159-10.688,32.906c-7.128,9.751-16.409,16.501-27.844,20.25     c-2.439,0.563-3.656-0.281-3.656-2.531v-15.469c0-4.685-1.314-8.156-3.937-10.406c7.686-0.936,13.874-3.375,18.562-7.313     c4.685-3.938,7.031-10.78,7.031-20.531c0-5.81-1.876-10.78-5.625-14.906c1.688-4.5,1.499-9.466-0.563-14.906h-1.406     c-1.125-0.185-2.953,0.189-5.484,1.125c-2.531,0.94-5.392,2.531-8.578,4.781c-4.126-1.31-8.815-1.969-14.062-1.969     c-5.251,0-9.94,0.659-14.063,1.969c-7.128-4.874-12.283-6.842-15.469-5.906c-2.065,5.44-2.25,10.406-0.563,14.906     c-3.753,4.126-5.625,9.097-5.625,14.906c0,9.751,2.342,16.594,7.031,20.531c4.685,3.938,10.872,6.376,18.563,7.313     c-1.876,1.503-3.094,4.034-3.656,7.594c-7.128,3.19-12.564,1.595-16.313-4.781l-0.844-1.406     c-0.751-0.936-1.828-1.872-3.234-2.813c-1.406-0.936-2.953-1.406-4.641-1.406c-3.001,0-3.094,1.125-0.281,3.375l0.844,0.563     c0.747,0.378,1.639,1.266,2.672,2.672c1.028,1.406,1.92,3.05,2.672,4.922l1.406,2.813c0.747,1.688,2.716,3.142,5.906,4.359     c3.186,1.222,7.031,1.362,11.531,0.422c0,1.876,0.044,3.894,0.141,6.047c0.092,2.158,0.141,3.331,0.141,3.516     c0,2.25-1.314,3.094-3.938,2.531c-11.25-3.749-20.487-10.499-27.703-20.25c-7.22-9.747-10.828-20.716-10.828-32.906     c0-15.561,5.528-28.828,16.594-39.797c11.061-10.969,24.28-16.453,39.656-16.453c15.372,0,28.591,5.484,39.656,16.453     C264.914,144.732,270.446,157.999,270.446,173.56z" fill="#FFFFFF"/></g></g></g></svg>